<?xml version="1.0" encoding="UTF-8" standalone="no"?>
<svg
   xmlns:dc="http://purl.org/dc/elements/1.1/"
   xmlns:cc="http://creativecommons.org/ns#"
   xmlns:rdf="http://www.w3.org/1999/02/22-rdf-syntax-ns#"
   xmlns:svg="http://www.w3.org/2000/svg"
   xmlns="http://www.w3.org/2000/svg"
   xmlns:sodipodi="http://sodipodi.sourceforge.net/DTD/sodipodi-0.dtd"
   xmlns:inkscape="http://www.inkscape.org/namespaces/inkscape"
   viewBox="0 0 495.12 140.05333"
   height="140.05333"
   width="495.12"
   xml:space="preserve"
   id="svg2"
   version="1.1"
   sodipodi:docname="logo-w.svg"
   inkscape:version="0.92.2 5c3e80d, 2017-08-06"><sodipodi:namedview
     pagecolor="#ffffff"
     bordercolor="#666666"
     borderopacity="1"
     objecttolerance="10"
     gridtolerance="10"
     guidetolerance="10"
     inkscape:pageopacity="0"
     inkscape:pageshadow="2"
     inkscape:window-width="908"
     inkscape:window-height="930"
     id="namedview13"
     showgrid="false"
     inkscape:zoom="0.88463404"
     inkscape:cx="180.86575"
     inkscape:cy="-20.406211"
     inkscape:window-x="0"
     inkscape:window-y="0"
     inkscape:window-maximized="0"
     inkscape:current-layer="g12" /><metadata
     id="metadata8"><rdf:RDF><cc:Work
         rdf:about=""><dc:format>image/svg+xml</dc:format><dc:type
           rdf:resource="http://purl.org/dc/dcmitype/StillImage" /><dc:title></dc:title></cc:Work></rdf:RDF></metadata><defs
     id="defs6" /><g
     transform="matrix(1.3333333,0,0,-1.3333333,0,140.05333)"
     id="g10"><g
       transform="scale(0.1)"
       id="g12"><path
         id="path14"
         style="fill:#ffffff;fill-opacity:1;fill-rule:nonzero;stroke:none"
         d="M 895.148,1050.45 H 23.707 c -13.0351,0 -23.71090625,-10.68 -23.71090625,-23.72 V 777.102 C -0.00390625,764 10.6172,753.383 23.707,753.383 H 294.184 V 34.3906 c 0,-13.039 10.668,-23.7187 23.714,-23.7187 h 69.293 c 142.039,0 237.5,82.0273 237.5,204.1211 v 538.59 h 270.457 c 13.051,0 23.723,10.676 23.723,23.719 v 249.628 c 0,13.04 -10.672,23.72 -23.723,23.72 M 813.059,222.293 c -58.426,0 -105.809,-47.375 -105.809,-105.801 0,-58.4412 47.383,-105.8201 105.809,-105.8201 58.445,0 105.812,47.3789 105.812,105.8201 0,58.426 -47.367,105.801 -105.812,105.801" /><path
         id="path16"
         style="fill:#f6f6f6;fill-opacity:1;fill-rule:nonzero;stroke:none"
         d="m 3087.02,148.141 c -36.23,-26.258 -61.66,-39.559 -94.25,-39.559 -30.5,0 -44.71,12.527 -44.71,39.434 v 11.214 c 0,23.985 11.73,35.391 36.8,35.922 h 102.16 z M 2842.1,455.316 v -0.035 c -0.05,0 -0.09,0.035 -0.14,0.035 -4.34,0 -7.84,-3.503 -7.84,-7.843 v -95.68 h 0.01 c 0.04,-4.289 3.51,-7.762 7.83,-7.762 0.05,0 0.09,0.024 0.14,0.024 v -0.024 c 59.81,0.532 153.86,0.063 180.82,0.063 45.05,0 64.1,-17.731 64.1,-47.574 v -12.149 h -140.01 c -42.76,0 -76.79,-10.187 -101.15,-30.285 -24.66,-20.363 -37.18,-49.016 -37.18,-85.164 V 130.41 c 0,-40.8084 13.83,-73.1483 41.11,-96.1287 C 2876.77,11.5313 2912.15,0 2954.94,0 c 61.75,0 105.36,23.6094 148.41,70.2031 l 11.19,-55.9218 c 0.43,-2.1602 2.33,-3.7227 4.54,-3.7227 h 101.35 c 4.27,0 7.73,3.4531 7.73,7.7227 V 295.641 c 0,60.074 -14.72,103.062 -43.72,127.793 -28.76,24.507 -73.63,35.429 -133.33,36.949 -48.9,1.238 -134.41,-1.879 -209.01,-5.067" /><path
         id="path18"
         style="fill:#f6f6f6;fill-opacity:1;fill-rule:nonzero;stroke:none"
         d="m 3705.66,455.316 h -123.05 c -4.27,0 -7.73,-3.457 -7.73,-7.722 V 296.027 h -144.24 v 151.567 c 0,4.265 -3.44,7.722 -7.71,7.722 h -123.94 c -4.26,0 -7.71,-3.457 -7.71,-7.722 V 18.2891 c 0,-4.2578 3.45,-7.7305 7.71,-7.7305 h 123.94 c 4.27,0 7.71,3.4727 7.71,7.7305 V 194.484 h 144.24 V 18.2891 c 0,-4.2578 3.46,-7.7305 7.73,-7.7305 h 123.05 c 4.26,0 7.73,3.4727 7.73,7.7305 V 447.594 c 0,4.265 -3.47,7.722 -7.73,7.722" /><path
         id="path20"
         style="fill:#f6f6f6;fill-opacity:1;fill-rule:nonzero;stroke:none"
         d="m 2747.4,455.316 h -219.74 c -76.27,0 -113.84,-39.281 -125.98,-115 -7.89,-49.257 -24.73,-155.429 -31.61,-197.398 -2.64,-15.965 -19.52,-21.371 -43.55,-22.09 -8.49,-0.265 -16.65,-2.711 -16.65,-16.152 V 25.75 c 0.38,-8.0508 6.9,-14.4297 14.95,-14.7109 6.27,-0.2188 76.1,-0.4297 97.76,-0.4297 33.73,0 63.4,22.8203 68.81,55.8281 12.63,76.9965 30.85,188.3595 40.78,248.8675 5.48,33.422 13.58,38.48 40.38,38.48 h 41.44 V 18.2891 c 0,-4.2578 3.45,-7.7305 7.73,-7.7305 h 125.68 c 4.28,0 7.72,3.4727 7.72,7.7305 V 447.594 c 0,4.265 -3.44,7.722 -7.72,7.722" /><path
         id="path22"
         style="fill:#f6f6f6;fill-opacity:1;fill-rule:nonzero;stroke:none"
         d="m 1815.69,455.316 h -369.21 c -4.27,0 -7.73,-3.457 -7.73,-7.722 v -95.781 c 0,-4.258 3.46,-7.719 7.73,-7.719 h 114.91 V 18.2891 c 0,-4.2578 3.47,-7.7305 7.72,-7.7305 h 123.93 c 4.27,0 7.72,3.4727 7.72,7.7305 V 344.094 h 114.93 c 4.25,0 7.71,3.461 7.71,7.719 v 95.781 c 0,4.265 -3.46,7.722 -7.71,7.722" /><path
         id="path24"
         style="fill:#f6f6f6;fill-opacity:1;fill-rule:nonzero;stroke:none"
         d="m 2121.93,148.141 c -36.22,-26.258 -61.66,-39.559 -94.24,-39.559 -30.5,0 -44.7,12.527 -44.7,39.434 v 11.214 c 0,23.985 11.71,35.391 36.79,35.922 h 102.15 z m 97.41,275.293 c -28.75,24.507 -73.62,35.339 -133.32,36.949 -37.39,1.012 -161.36,-2.938 -200.66,-5.067 -4.32,-0.23 -7.83,-3.503 -7.83,-7.843 v -95.68 h 0.01 c 0.04,-4.289 3.52,-7.762 7.82,-7.762 0.05,0 0.09,0.024 0.14,0.024 v -0.024 c 59.82,0.532 145.38,0.063 172.33,0.063 45.05,0 64.1,-17.731 64.1,-47.574 v -12.149 h -140 c -42.76,0 -76.81,-10.187 -101.16,-30.285 -24.66,-20.363 -37.18,-49.016 -37.18,-85.164 V 130.41 c 0,-40.8084 13.84,-73.1483 41.1,-96.1287 C 1911.68,11.5313 1947.06,0 1989.85,0 c 61.75,0 105.36,23.6094 148.41,70.2031 l 11.19,-55.9218 c 0.43,-2.1602 2.33,-3.7227 4.54,-3.7227 h 101.35 c 4.27,0 7.72,3.4531 7.72,7.7227 V 295.641 c 0,60.074 -14.7,103.062 -43.72,127.793" /></g></g></svg>